#!OML:ASF G:\JayActor3\Patient Classification 1\Patient 1\Session 6\male.ASF
:FULLY-SPECIFIED
:DEGREES
4264
root -1.09186 16.2907 1.21632 536.652 -55.6014 -538.219
lowerback 0.759499 -5.704 -0.396697
upperback -2.20913 -7.62607 0.976856
thorax -2.50843 -3.80013 1.43345
lowerneck 10.7982 -11.6978 -2.34848
upperneck -15.1184 -17.5861 -4.45991
head -6.60024 -8.16754 0.534458
rclavicle -3.97569e-015 -1.78906e-015
rhumerus -52.5393 45.6108 -105.415
rradius 82.2743
rwrist 16.8764
rhand -57.5289 20.8385
rfingers 7.12502
rthumb -29.7964 -6.78549
lclavicle -3.97569e-015 -1.78906e-015
lhumerus -54.2905 -14.5214 99.1516
lradius 95.3434
lwrist 1.31324
lhand -46.9302 -16.7568
lfingers 7.12502
lthumb -19.6402 12.2711
rfemur -27.6976 17.5759 20.3946
rtibia 33.4992
rfoot -1.73725 12.7463
rtoes 6.27134
lfemur 1.30888 21.4531 -27.677
ltibia 17.9812
lfoot -35.9462 34.5142
ltoes 14.6116
4265
root -1.0929 16.2905 1.2185 536.647 -55.5657 -538.214
lowerback 0.764127 -5.70961 -0.387486
upperback -2.2001 -7.63323 0.973002
thorax -2.50325 -3.8039 1.42466
lowerneck 10.7971 -11.701 -2.33795
upperneck -15.1265 -17.5898 -4.45791
head -6.60342 -8.16988 0.53427
rclavicle -3.70236e-014 2.18663e-015
rhumerus -52.5777 45.5612 -105.382
rradius 82.2119
rwrist 16.8852
rhand -57.5097 20.841
rfingers 7.12502
rthumb -29.7781 -6.78621
lclavicle -3.70236e-014 2.18663e-015
lhumerus -54.289 -14.5238 99.1458
lradius 95.3479
lwrist 1.32345
lhand -46.9224 -16.7571
lfingers 7.12502
lthumb -19.6327 12.2715
rfemur -27.6945 17.5825 20.3973
rtibia 33.4889
rfoot -1.71215 12.764
rtoes 6.32342
lfemur 1.30232 21.4637 -27.685
ltibia 17.9914
lfoot -35.9721 34.5259
ltoes 14.6243
4266
root -1.09407 16.2903 1.22062 536.638 -55.5342 -538.205
lowerback 0.766757 -5.71738 -0.377056
upperback -2.18995 -7.64322 0.970212
thorax -2.49575 -3.80912 1.41606
lowerneck 10.7976 -11.7029 -2.33184
upperneck -15.1364 -17.5922 -4.45274
head -6.60672 -8.1715 0.535648
rclavicle 4.29126e-014 -1.98785e-016
rhumerus -52.6119 45.5127 -105.346
rradius 82.148
rwrist 16.896
rhand -57.4984 20.8603
rfingers 7.12502
rthumb -29.7672 -6.76885
lclavicle 4.29126e-014 -1.98785e-016
lhumerus -54.2863 -14.524 99.139
lradius 95.352
lwrist 1.33091
lhand -46.9151 -16.7617
lfingers 7.12502
lthumb -19.6257 12.2677
rfemur -27.6895 17.5792 20.403
rtibia 33.4793
rfoot -1.69204 12.7837
rtoes 6.34129
lfemur 1.29627 21.4725 -27.6905
ltibia 18.0028
lfoot -35.9889 34.5432
ltoes 14.6193
4267
root -1.09518 16.2901 1.22273 536.619 -55.5011 -538.183
lowerback 0.768674 -5.72601 -0.361009
upperback -2.1798 -7.65422 0.970667
thorax -2.48812 -3.81494 1.40766
lowerneck 10.796 -11.7033 -2.3237
upperneck -15.1444 -17.5926 -4.45126
head -6.60958 -8.1721 0.535286
rclavicle -3.04638e-014 -9.74045e-015
rhumerus -52.6387 45.4703 -105.31
rradius 82.0767
rwrist 16.906
rhand -57.4995 20.9062
rfingers 7.12502
rthumb -29.7683 -6.72277
lclavicle -3.04638e-014 -9.74045e-015
lhumerus -54.282 -14.5225 99.129
lradius 95.3554
lwrist 1.33629
lhand -46.9106 -16.7628
lfingers 7.12502
lthumb -19.6214 12.267
rfemur -27.6872 17.5753 20.4171
rtibia 33.4711
rfoot -1.67386 12.8015
rtoes 6.35699
lfemur 1.28858 21.4774 -27.6891
ltibia 18.0125
lfoot -36.0046 34.5667
ltoes 14.611
4268
root -1.09631 16.2899 1.22474 536.602 -55.4699 -538.163
lowerback 0.770313 -5.73563 -0.348182
upperback -2.17039 -7.6666 0.972331
thorax -2.48049 -3.82139 1.40226
lowerneck 10.7934 -11.7023 -2.31417
upperneck -15.1492 -17.5918 -4.456
head -6.61195 -8.17194 0.532637
rclavicle 3.37685e-014 -9.93923e-016
rhumerus -52.6597 45.4342 -105.273
rradius 81.9979
rwrist 16.9163
rhand -57.5108 20.9551
rfingers 7.12502
rthumb -29.7791 -6.67191
lclavicle 3.37685e-014 -9.93923e-016
lhumerus -54.2783 -14.5209 99.1193
lradius 95.3578
lwrist 1.33907
lhand -46.9052 -16.768
lfingers 7.12502
lthumb -19.6161 12.2624
rfemur -27.6863 17.5709 20.4298
rtibia 33.4661
rfoot -1.66042 12.8185
rtoes 6.36644
lfemur 1.28302 21.486 -27.6874
ltibia 18.0189
lfoot -36.0175 34.5867
ltoes 14.6036
4269
root -1.09762 16.2896 1.22668 536.599 -55.4396 -538.165
lowerback 0.773199 -5.74506 -0.347896
upperback -2.16017 -7.679 0.969634
thorax -2.47168 -3.82761 1.39928
lowerneck 10.7892 -11.7014 -2.30189
upperneck -15.1481 -17.5906 -4.46552
head -6.61285 -8.17157 0.527825
rclavicle -9.56651e-015 2.98177e-015
rhumerus -52.6758 45.4016 -105.237
rradius 81.9118
rwrist 16.9282
rhand -57.5326 21.0109
rfingers 7.12502
rthumb -29.7999 -6.61237
lclavicle -9.56651e-015 2.98177e-015
lhumerus -54.275 -14.5231 99.1078
lradius 95.3599
lwrist 1.34361
lhand -46.9019 -16.7776
lfingers 7.12502
lthumb -19.6129 12.2531
rfemur -27.6825 17.5633 20.4299
rtibia 33.4646
rfoot -1.64325 12.8421
rtoes 6.37877
lfemur 1.28526 21.4967 -27.6974
ltibia 18.0219
lfoot -36.0325 34.6045
ltoes 14.5997
4270
root -1.09898 16.2893 1.22851 536.598 -55.4087 -538.17
lowerback 0.777298 -5.7545 -0.35146
upperback -2.15102 -7.69151 0.967208
thorax -2.46412 -3.83381 1.39885
lowerneck 10.7827 -11.6993 -2.2896
upperneck -15.1384 -17.5876 -4.47978
head -6.61103 -8.1703 0.520937
rclavicle 7.2134e-014 -2.18663e-015
rhumerus -52.6993 45.365 -105.201
rradius 81.8314
rwrist 16.9446
rhand -57.5575 21.0407
rfingers 7.12502
rthumb -29.8236 -6.5784
lclavicle 7.2134e-014 -2.18663e-015
lhumerus -54.2739 -14.5276 99.0964
lradius 95.362
lwrist 1.34779
lhand -46.8986 -16.7816
lfingers 7.12502
lthumb -19.6098 12.2494
rfemur -27.6794 17.5583 20.4282
rtibia 33.4669
rfoot -1.62764 12.8673
rtoes 6.38894
lfemur 1.29222 21.5161 -27.7069
ltibia 18.0194
lfoot -36.0368 34.6197
ltoes 14.5902
4271
root -1.1003 16.2891 1.2302 536.597 -55.3784 -538.174
lowerback 0.778704 -5.76308 -0.355605
upperback -2.14253 -7.7029 0.965087
thorax -2.45564 -3.83945 1.39876
lowerneck 10.7748 -11.6977 -2.27669
upperneck -15.1228 -17.5846 -4.49623
head -6.60736 -8.16911 0.51298
rclavicle -5.56846e-014 -8.54774e-015
rhumerus -52.7243 45.3237 -105.163
rradius 81.7547
rwrist 16.9636
rhand -57.578 21.0368
rfingers 7.12502
rthumb -29.8432 -6.5787
lclavicle -5.56846e-014 -8.54774e-015
lhumerus -54.2724 -14.54 99.0855
lradius 95.3625
lwrist 1.35534
lhand -46.8982 -16.7825
lfingers 7.12502
lthumb -19.6094 12.2485
rfemur -27.6797 17.5566 20.4267
rtibia 33.4719
rfoot -1.61068 12.8917
rtoes 6.4039
lfemur 1.29967 21.5404 -27.7143
ltibia 18.0136
lfoot -36.0429 34.625
ltoes 14.592
4272
root -1.10167 16.2889 1.23176 536.598 -55.35 -538.18
lowerback 0.777139 -5.77113 -0.361304
upperback -2.13427 -7.71362 0.963121
thorax -2.44554 -3.84475 1.39932
lowerneck 10.7645 -11.6971 -2.26462
upperneck -15.1016 -17.5824 -4.51435
head -6.60151 -8.16844 0.504308
rclavicle -5.55603e-014 -1.19271e-014
rhumerus -52.749 45.2803 -105.124
rradius 81.6791
rwrist 16.9843
rhand -57.5995 20.9934
rfingers 7.12502
rthumb -29.8637 -6.61843
lclavicle -5.55603e-014 -1.19271e-014
lhumerus -54.2705 -14.5572 99.0767
lradius 95.3619
lwrist 1.36337
lhand -46.9029 -16.7799
lfingers 7.12502
lthumb -19.6139 12.2507
rfemur -27.6809 17.5558 20.4238
rtibia 33.4775
rfoot -1.5928 12.9146
rtoes 6.4298
lfemur 1.3062 21.5756 -27.7197
ltibia 18.0088
lfoot -36.036 34.6245
ltoes 14.5801
4273
root -1.10302 16.2887 1.23325 536.599 -55.3207 -538.181
lowerback 0.771668 -5.77774 -0.365631
upperback -2.12627 -7.7224 0.961827
thorax -2.43364 -3.84913 1.39934
lowerneck 10.7568 -11.697 -2.25546
upperneck -15.0809 -17.5809 -4.52906
head -6.59574 -8.16812 0.497279
rclavicle 7.87436e-014 -6.95746e-015
rhumerus -52.7731 45.231 -105.081
rradius 81.6072
rwrist 17.0082
rhand -57.6228 20.9127
rfingers 7.12502
rthumb -29.886 -6.69512
lclavicle 7.87436e-014 -6.95746e-015
lhumerus -54.2677 -14.5782 99.07
lradius 95.3591
lwrist 1.3732
lhand -46.906 -16.7763
lfingers 7.12502
lthumb -19.6169 12.254
rfemur -27.684 17.5556 20.4229
rtibia 33.4815
rfoot -1.5744 12.9343
rtoes 6.45848
lfemur 1.30784 21.617 -27.7225
ltibia 18.0087
lfoot -36.0308 34.616
ltoes 14.5715
4274
root -1.10452 16.2885 1.23465 536.602 -55.295 -538.186
lowerback 0.76359 -5.78496 -0.372278
upperback -2.11805 -7.73204 0.960868
thorax -2.41969 -3.85393 1.40064
lowerneck 10.752 -11.6971 -2.25485
upperneck -15.0615 -17.5797 -4.53638
head -6.58943 -8.16793 0.493813
rclavicle -1.53636e-013 -8.74653e-015
rhumerus -52.7901 45.1868 -105.038
rradius 81.5288
rwrist 17.0309
rhand -57.6548 20.8249
rfingers 7.12502
rthumb -29.9165 -6.77749
lclavicle -1.53636e-013 -8.74653e-015
lhumerus -54.2637 -14.5983 99.0654
lradius 95.3558
lwrist 1.3868
lhand -46.9057 -16.7823
lfingers 7.12502
lthumb -19.6166 12.248
rfemur -27.6848 17.5495 20.4204
rtibia 33.4832
rfoot -1.55597 12.9537
rtoes 6.47317
lfemur 1.30719 21.6655 -27.725
ltibia 18.0148
lfoot -36.0196 34.601
ltoes 14.5542
4275
root -1.10598 16.2884 1.23613 536.595 -55.2701 -538.175
lowerback 0.754753 -5.79202 -0.369978
upperback -2.11093 -7.74128 0.963499
thorax -2.40713 -3.85867 1.40075
lowerneck 10.7505 -11.6974 -2.25812
upperneck -15.045 -17.5796 -4.54136
head -6.58406 -8.16809 0.491989
rclavicle 9.10931e-014 1.27222e-014
rhumerus -52.8002 45.1479 -104.994
rradius 81.4422
rwrist 17.0535
rhand -57.6946 20.7517
rfingers 7.12502
rthumb -29.9545 -6.84384
lclavicle 9.10931e-014 1.27222e-014
lhumerus -54.2601 -14.6162 99.0639
lradius 95.3513
lwrist 1.39978
lhand -46.9069 -16.7964
lfingers 7.12502
lthumb -19.6178 12.2338
rfemur -27.6867 17.5441 20.4265
rtibia 33.4823
rfoot -1.53402 12.9677
rtoes 6.50384
lfemur 1.30246 21.7082 -27.7195
ltibia 18.0242
lfoot -36.0164 34.5839
ltoes 14.5459
4276
root -1.10737 16.2883 1.23767 536.578 -55.2484 -538.152
lowerback 0.749003 -5.80012 -0.363036
upperback -2.10547 -7.7518 0.970008
thorax -2.39805 -3.86411 1.40278
lowerneck 10.7511 -11.6974 -2.26444
upperneck -15.0309 -17.5798 -4.54564
head -6.57952 -8.16819 0.491059
rclavicle 4.86277e-014 1.66979e-014
rhumerus -52.8075 45.1138 -104.95
rradius 81.353
rwrist 17.0758
rhand -57.734 20.7105
rfingers 7.12502
rthumb -29.9921 -6.87824
lclavicle 4.86277e-014 1.66979e-014
lhumerus -54.2572 -14.6318 99.0659
lradius 95.3463
lwrist 1.41123
lhand -46.9028 -16.813
lfingers 7.12502
lthumb -19.6139 12.2176
rfemur -27.6878 17.5375 20.4395
rtibia 33.479
rfoot -1.51352 12.9772
rtoes 6.52718
lfemur 1.2954 21.7452 -27.7079
ltibia 18.0359
lfoot -36.0144 34.5682
ltoes 14.5388
4277
root -1.10896 16.2882 1.23926 536.567 -55.2305 -538.14
lowerback 0.746261 -5.81007 -0.361949
upperback -2.09968 -7.76491 0.975176
thorax -2.38968 -3.8707 1.40697
lowerneck 10.7527 -11.6965 -2.27184
upperneck -15.0194 -17.5793 -4.54928
head -6.57582 -8.16784 0.490578
rclavicle -1.17308e-013 -7.55382e-015
rhumerus -52.8129 45.088 -104.91
rradius 81.2594
rwrist 17.0997
rhand -57.7691 20.7117
rfingers 7.12502
rthumb -30.0256 -6.8709
lclavicle -1.17308e-013 -7.55382e-015
lhumerus -54.2545 -14.6442 99.0679
lradius 95.3415
lwrist 1.42348
lhand -46.9006 -16.8343
lfingers 7.12502
lthumb -19.6117 12.1965
rfemur -27.6835 17.5275 20.4461
rtibia 33.4743
rfoot -1.48869 12.989
rtoes 6.5603
lfemur 1.29248 21.774 -27.7037
ltibia 18.049
lfoot -36.0161 34.5575
ltoes 14.5333
4278
root -1.11052 16.2881 1.2409 536.55 -55.2137 -538.123
lowerback 0.748426 -5.82082 -0.359389
upperback -2.09479 -7.77903 0.982178
thorax -2.38489 -3.87778 1.41287
lowerneck 10.7534 -11.6946 -2.28028
upperneck -15.0068 -17.5777 -4.55383
head -6.57163 -8.16692 0.48977
rclavicle 1.36515e-013 6.16232e-015
rhumerus -52.8276 45.0597 -104.87
rradius 81.1764
rwrist 17.1302
rhand -57.7923 20.7331
rfingers 7.12502
rthumb -30.0477 -6.84557
lclavicle 1.36515e-013 6.16232e-015
lhumerus -54.2534 -14.6547 99.0704
lradius 95.3372
lwrist 1.4329
lhand -46.899 -16.8483
lfingers 7.12502
lthumb -19.6102 12.1827
rfemur -27.6769 17.5222 20.4552
rtibia 33.4696
rfoot -1.46573 12.9972
rtoes 6.60041
lfemur 1.29225 21.7936 -27.6979
ltibia 18.0593
lfoot -36.0151 34.5586
ltoes 14.5175
